<?xml version="1.0" encoding="utf-8"?>
<!-- Generator: Adobe Illustrator 24.2.0, SVG Export Plug-In . SVG Version: 6.00 Build 0)  -->
<svg version="1.1" id="Capa_1" xmlns="http://www.w3.org/2000/svg" xmlns:xlink="http://www.w3.org/1999/xlink" x="0px" y="0px"
	 viewBox="0 0 478.4 478.4" style="enable-background:new 0 0 478.4 478.4;" xml:space="preserve">
<style type="text/css">
	.st0{fill:#F15757;}
</style>
<g>
	<g>
		<path class="st0" d="M239.6,0C107.6-0.2,0.5,106.6,0.3,238.5c-0.1,65.2,26.5,127.7,73.5,172.8c0.1,0.1,0.2,0.3,0.3,0.5
			c1.4,1.3,2.9,2.5,4.3,3.7c3.8,3.4,7.7,6.9,11.7,10.2c2.2,1.7,4.4,3.4,6.6,5c3.8,2.9,7.6,5.7,11.6,8.3c2.7,1.7,5.5,3.4,8.3,5.1
			c3.7,2.2,7.4,4.5,11.2,6.5c3.2,1.7,6.5,3.2,9.8,4.7c3.6,1.7,7.1,3.4,10.8,4.9c3.7,1.5,7.4,2.7,11.1,4.1s6.9,2.6,10.5,3.7
			c4,1.2,8.2,2.1,12.3,3.2c3.4,0.8,6.7,1.8,10.2,2.5c4.7,0.9,9.5,1.5,14.3,2.2c3,0.4,5.8,1,8.8,1.3c7.8,0.8,15.7,1.2,23.7,1.2
			s15.8-0.4,23.7-1.2c3-0.3,5.9-0.9,8.8-1.3c4.8-0.6,9.6-1.2,14.3-2.2c3.4-0.7,6.8-1.7,10.2-2.5c4.1-1,8.2-1.9,12.3-3.2
			c3.6-1.1,7-2.4,10.5-3.7s7.4-2.6,11.1-4.1s7.2-3.3,10.8-4.9c3.3-1.6,6.6-3,9.8-4.7c3.8-2,7.5-4.3,11.2-6.5
			c2.8-1.7,5.6-3.3,8.3-5.1c4-2.6,7.8-5.5,11.6-8.3c2.2-1.7,4.5-3.2,6.6-5c4-3.2,7.9-6.7,11.7-10.2c1.4-1.3,2.9-2.4,4.3-3.7
			c0.1-0.1,0.2-0.3,0.3-0.5c46.9-44.9,73.4-107.1,73.4-172C478.4,107.4,371.6,0.2,239.6,0z M406,357.7
			c-11-51.1-44.6-94.4-91.4-117.6c38.2-41.7,35.5-106.4-6.2-144.7c-41.7-38.2-106.4-35.5-144.7,6.2c-36,39.2-36,99.3,0,138.5
			c-46.8,23.3-80.4,66.6-91.4,117.6C6.8,265.8,28.2,138.1,120.2,72.5c34.7-24.8,76.4-38.1,119-38c112.9-0.2,204.6,91.2,204.8,204.1
			C444.1,281.4,430.8,323,406,357.7z"/>
	</g>
</g>
</svg>
